<svg xml:space="preserve" viewBox="0 0 94 73" y="0" x="0" id="Ebene_1" version="1.1" xmlns="http://www.w3.org/2000/svg" class="svg-inline"><style xmlns="http://www.w3.org/2000/svg">.uiiuasnfsfsdpp{display:none;fill:#228fff}</style><path xmlns="http://www.w3.org/2000/svg" id="metaballs" d="M48.98 34.05a4.98 4.98 0 0 0-4.37-2.6c-1.8 0-6.12 2.71-9.83 2.71-2.5 0-10.26-2.71-12.35-2.71-2.74 0-4.97 2.23-4.97 4.97s2.23 4.97 4.97 4.97c2.06 0 8.54-2.68 12.26-2.68 3.64 0 8 2.68 9.93 2.68a4.972 4.972 0 0 0 4.58-6.9c-.08-.15-.15-.3-.22-.44z"/><path xmlns="http://www.w3.org/2000/svg" id="dot2" d="M88.97 31.45c-2.74 0-4.97 2.23-4.97 4.97s2.23 4.97 4.97 4.97 4.97-2.23 4.97-4.97-2.22-4.97-4.97-4.97z"/><path xmlns="http://www.w3.org/2000/svg" id="dot1" d="M66.79 31.45c-2.74 0-4.97 2.23-4.97 4.97s2.23 4.97 4.97 4.97 4.97-2.23 4.97-4.97-2.23-4.97-4.97-4.97z"/><path xmlns="http://www.w3.org/2000/svg" id="zvki" d="m14.49 57.63 10.98 15.3h-6.56L10.9 61.32l-4.83 4.96v6.65h-6v-36.6h6v22.9h.21l11.46-11.75h6.65l-9.9 10.15zm16.38-5.41h11v20.71h6V47.47h-17v4.75zm14.91-39.05c-.94 2.56-1.7 5.12-2.52 7.69h-.21c-.82-2.57-1.64-5.13-2.55-7.69L35.6 0h-6.06l10.15 25.46h6.82L56.44 0H50.7l-4.92 13.17zm-21.67 7.51H8.39L23.7 3.19V0H1.75v4.75h13.52L0 22.26v3.19h24.11v-4.77z"/></svg>